<svg width="700" height="300" xmlns="http://www.w3.org/2000/svg"><style>.a{stroke-width:9px;stroke:#000;}</style><title>  Water Molecule : 2-dimensional</title><style type="text/css">  
text {
	font-family: sans-serif;
	font-size: 102pt;
	text-anchor: middle;
}

line {
	stroke: #000;
	stroke-width: 9px;
}
</style><g transform="translate(0 1.61684)"><line x1="279.2" y1="90" x2="139.2" y2="210" class="a"/><line x1="420.8" y1="90" x2="560.8" y2="210" class="a"/><path d="m304.4 66.5c0-15.8 4.2-28.2 12.7-37.1 8.5-8.9 19.5-13.4 32.9-13.4 8.8 0 16.7 2.1 23.8 6.3 7.1 4.2 12.4 10.1 16.1 17.6 3.7 7.5 5.6 16 5.6 25.6 0 9.7-2 18.3-5.9 25.9 -3.9 7.6-9.4 13.4-16.6 17.3 -7.1 3.9-14.9 5.9-23.1 5.9 -9 0-17-2.2-24-6.5 -7.1-4.3-12.4-10.2-16.1-17.7 -3.6-7.5-5.5-15.4-5.5-23.8Zm13 0.2c0 11.5 3.1 20.5 9.3 27.1 6.2 6.6 13.9 9.9 23.2 9.9 9.5 0 17.3-3.3 23.4-10 6.1-6.7 9.2-16.1 9.2-28.4 0-7.7-1.3-14.5-3.9-20.3 -2.6-5.8-6.5-10.3-11.5-13.4 -5-3.2-10.7-4.8-17-4.8 -8.9 0-16.6 3.1-23 9.2 -6.4 6.1-9.6 16.3-9.6 30.7Z"/><path d="m594.2 280.7l0-95.3 12.6 0 0 39.1 49.4 0 0-39.1 12.6 0 0 95.3 -12.6 0 0-44.9 -49.4 0 0 44.9 -12.6 0 0 0Z"/><path d="m31.1 280.8l0-95.3 12.6 0 0 39.1 49.4 0 0-39.1 12.6 0 0 95.3 -12.6 0 0-44.9 -49.4 0 0 44.9 -12.6 0 0 0Z"/></g></svg>