<svg viewBox="-10 -11 20 20" width="400" height="400" xmlns="http://www.w3.org/2000/svg"><style>.a{fill:none;stroke-width:0.5;stroke:#000;}</style><defs><path d="M-6-3.5a6 6 0 0 1 12 0Z"/><path d="M0-3.5a6 6 0 0 0-6 0 6 6 0 0 0 3 5.2Z"/><path d="M0-3.5a6 6 0 0 1 3 5.2 6 6 0 0 1-6 0 6 6 0 0 1 3-5.2Z"/></defs><use xlink:href="#a" fill="#0ff"/><use transform="rotate(120)" xlink:href="#a" fill="#ff0"/><use transform="rotate(240)" xlink:href="#a" fill="#f0f"/><use xlink:href="#b" fill="#00f"/><use transform="rotate(120)" xlink:href="#b" fill="#0f0"/><use transform="rotate(240)" xlink:href="#b" fill="#f00"/><use xlink:href="#c"/><path d="M1-7a1 1 0 0 0-2 0v2a1 1 0 0 0 2 0" class="a"/><path d="M-7 5.3v-4.5l1 3 1-3v4.5" class="a"/><path d="M5 0.8l1.2 2v2.8 -2.7l1.2-2" class="a"/></svg>