<svg viewBox="0 0 400 400" width="400" height="400" xmlns="http://www.w3.org/2000/svg"><path d="M330.2 144.1c33.6 19.6 58.1 53.9 63.6 95.4 9.5 71.4-40.6 136.9-111.9 146.5 -29.8 4-58.7-2.5-82.8-16.5" fill="#ed1c24"/><path d="M199.2 369.4c-14.2 8.2-30.3 13.8-47.6 16.1C80.3 395 14.7 344.9 5.2 273.6 -2 220.1 24.4 169.8 68.2 144c0.5-0.3 0.9-0.5 1.4-0.8" fill="#0066b3"/><path d="M69.5 143.2c0.1-64.2 47.7-120 113.1-128.8C254 4.9 319.5 55 329.1 126.4c0.8 6 1.2 11.9 1.2 17.7" fill="#fff200"/><path d="M198.5 144.4c14.6-8.6 31.1-14.5 48.9-16.9 29.8-4 58.7 2.5 82.8 16.5v0c-0.1 47.2-25.9 89.9-65.5 112.7" fill="#f58220"/><path d="M134.3 256.3c-33.6-19.6-58.1-53.9-63.6-95.4 -0.8-6-1.2-11.9-1.2-17.7l0 0c14.2-8.2 30.3-13.8 47.6-16.1 29.8-4 58.7 2.5 82.8 16.5" fill="#00a65d"/><path d="M264.7 256.8c-0.1 47.2-25.9 89.9-65.5 112.7l0 0c-33.6-19.6-58.1-53.9-63.7-95.4 -0.8-6-1.2-11.9-1.2-17.7" fill="#5c2d91"/><path d="M264.7 256.8c-14.2 8.2-30.3 13.8-47.6 16.1 -29.8 4-58.7-2.5-82.8-16.5v0c0.1-46.7 25.3-88.9 64.2-111.9l1.4-0.8c33.6 19.6 58.1 53.9 63.7 95.4C264.3 245 264.7 250.9 264.7 256.8L264.7 256.8Z"/></svg>